<svg width="14" height="13" viewBox="0 0 14 13" fill="none" xmlns="http://www.w3.org/2000/svg">
<path d="M13.959 4.10351V3.2609C13.959 3.10659 13.8976 2.9586 13.7884 2.84948C13.6793 2.74037 13.5312 2.67906 13.3768 2.67906H12.555C12.3807 2.67884 12.2156 2.60058 12.1052 2.4658C11.9948 2.33102 11.9506 2.15389 11.9848 1.98308L12.242 0.69691C12.2766 0.525809 12.2324 0.348248 12.1218 0.213203C12.0111 0.0781569 11.8456 7.41805e-07 11.671 7.41805e-07H10.7851C10.5089 -0.000356357 10.2706 0.193595 10.215 0.463988L9.86584 2.21136C9.80985 2.4819 9.57121 2.67579 9.29477 2.67535H7.38378C7.20943 2.67507 7.04436 2.59684 6.93381 2.46211C6.82326 2.32738 6.77884 2.15028 6.81271 1.97937L7.07085 0.69691C7.10539 0.525809 7.06124 0.348248 6.95058 0.213203C6.83992 0.0781569 6.67444 7.41805e-07 6.49978 7.41805e-07H5.61392C5.33748 -0.000437619 5.09885 0.193451 5.04285 0.463988L4.69464 2.21136C4.63865 2.4819 4.40001 2.67579 4.12357 2.67535H2.49022C2.16867 2.67535 1.90801 2.93585 1.90801 3.25719V4.09979C1.908 4.25402 1.96937 4.40192 2.07859 4.51089C2.1878 4.61986 2.33589 4.68095 2.49022 4.68071H3.48936C3.6637 4.68099 3.82877 4.75922 3.93932 4.89395C4.04987 5.02868 4.0943 5.20577 4.06043 5.37669L3.56736 7.84139C3.51176 8.11178 3.27344 8.30573 2.99722 8.30538H1.54122C1.38616 8.30537 1.23751 8.36718 1.12822 8.4771C1.01892 8.58702 0.958019 8.73597 0.958996 8.89093V9.7326C0.958996 10.0539 1.21967 10.3144 1.54122 10.3144H2.363C2.5373 10.3147 2.70233 10.3929 2.81275 10.5277C2.92316 10.6625 2.96734 10.8396 2.93315 11.0104L2.67593 12.2966C2.64171 12.4676 2.686 12.6448 2.79663 12.7797C2.90725 12.9145 3.07254 12.9926 3.247 12.9926H4.13286C4.40908 12.9929 4.6474 12.799 4.703 12.5286L5.05214 10.7859C5.10813 10.5153 5.34677 10.3214 5.62321 10.3219H7.5342C7.70855 10.3222 7.87362 10.4004 7.98417 10.5351C8.09471 10.6698 8.13914 10.8469 8.10527 11.0178L7.84713 12.304C7.81291 12.475 7.8572 12.6523 7.96782 12.7871C8.07845 12.9219 8.24374 13 8.4182 13H9.30406C9.5805 13.0004 9.81913 12.8065 9.87512 12.536L10.2233 10.7933C10.2793 10.5227 10.518 10.3288 10.7944 10.3293H12.2978C12.4522 10.3293 12.6003 10.268 12.7094 10.1589C12.8186 10.0498 12.88 9.90176 12.88 9.74745V8.89093C12.8802 8.73654 12.819 8.5884 12.7097 8.47923C12.6005 8.37006 12.4522 8.30884 12.2978 8.30909H11.4286C11.2543 8.3088 11.0892 8.23057 10.9787 8.09584C10.8681 7.96111 10.8237 7.78402 10.8576 7.61311L11.3506 5.15212C11.4062 4.88172 11.6445 4.68777 11.9208 4.68813H13.3768C13.5317 4.68813 13.6802 4.62645 13.7894 4.51673C13.8987 4.40701 13.9597 4.2583 13.959 4.10351ZM8.16842 8.30909H6.25742C6.08296 8.30914 5.91767 8.231 5.80705 8.09618C5.69642 7.96136 5.65213 7.78407 5.68635 7.61311L6.17942 5.15212C6.23502 4.88172 6.47334 4.68777 6.74956 4.68813H8.66056C8.83502 4.68808 9.00031 4.76622 9.11093 4.90104C9.22156 5.03586 9.26585 5.21315 9.23163 5.38411L8.73856 7.84139C8.6845 8.11326 8.44578 8.30909 8.16842 8.30909Z" fill="#6692C8"/>
</svg>
