<svg width="48" height="48" viewBox="0 0 48 48" fill="none" xmlns="http://www.w3.org/2000/svg">
<circle cx="24" cy="24" r="24" fill="white"/>
<path d="M28.7466 24.2631L32.5446 20.4651C33.1232 19.8599 33.442 19.0522 33.4326 18.2149C33.4232 17.3777 33.0864 16.5774 32.4943 15.9853C31.9023 15.3932 31.102 15.0565 30.2647 15.0471C29.4275 15.0377 28.6198 15.3564 28.0146 15.9351L24.2166 19.7331L20.4006 15.9351C19.7954 15.3564 18.9877 15.0377 18.1505 15.0471C17.3132 15.0565 16.5129 15.3932 15.9208 15.9853C15.3288 16.5774 14.992 17.3777 14.9826 18.2149C14.9732 19.0522 15.292 19.8599 15.8706 20.4651L19.6686 24.2631L15.8706 28.061C15.292 28.6662 14.9732 29.4739 14.9826 30.3112C14.992 31.1484 15.3288 31.9487 15.9208 32.5408C16.5129 33.1329 17.3132 33.4696 18.1505 33.479C18.9877 33.4884 19.7954 33.1697 20.4006 32.5911L24.1986 28.7931L27.9966 32.5911C28.6018 33.1697 29.4095 33.4884 30.2467 33.479C31.084 33.4696 31.8843 33.1329 32.4763 32.5408C33.0684 31.9487 33.4052 31.1484 33.4146 30.3112C33.424 29.4739 33.1052 28.6662 32.5266 28.061L28.7466 24.2631Z" fill="#F72859"/>
</svg>
